<svg width="225" height="353" viewBox="0 0 225 353" fill="none" xmlns="http://www.w3.org/2000/svg">
<path d="M191.272 83.7803H189.528V30.7136C189.528 26.6802 188.813 22.6864 187.423 18.96C186.034 15.2337 183.997 11.8478 181.43 8.99582C178.863 6.1438 175.815 3.88145 172.46 2.33794C169.106 0.794439 165.511 3.41739e-06 161.88 0H60.6726C53.3399 -1.55286e-05 46.3075 3.23585 41.1225 8.99575C35.9375 14.7556 33.0246 22.5678 33.0245 30.7135V321.842C33.0245 325.875 33.7397 329.869 35.1291 333.595C36.5186 337.322 38.5551 340.707 41.1224 343.559C43.6898 346.411 46.7377 348.674 50.0921 350.217C53.4465 351.761 57.0417 352.555 60.6725 352.555H161.88C169.212 352.555 176.245 349.319 181.43 343.56C186.615 337.8 189.528 329.988 189.528 321.842V121.554H191.272V83.7803Z" fill="#3F3D56"/>
<path d="M162.995 7.99061H149.785C150.392 9.64524 150.624 11.4405 150.46 13.2181C150.296 14.9958 149.741 16.7013 148.843 18.1845C147.946 19.6676 146.734 20.8829 145.314 21.7232C143.895 22.5635 142.311 23.0031 140.702 23.0033H82.722C81.1133 23.0031 79.5294 22.5635 78.1098 21.7232C76.6901 20.8829 75.4783 19.6676 74.581 18.1845C73.6837 16.7013 73.1286 14.9958 72.9644 13.2181C72.8003 11.4405 73.0322 9.64524 73.6397 7.99061H61.3007C58.5893 7.99061 55.9044 8.58388 53.3994 9.73655C50.8943 10.8892 48.6182 12.5787 46.7009 14.7086C44.7837 16.8384 43.2628 19.3669 42.2252 22.1497C41.1876 24.9325 40.6535 27.9151 40.6535 30.9271V321.628C40.6535 324.64 41.1876 327.623 42.2252 330.406C43.2628 333.188 44.7836 335.717 46.7009 337.847C48.6182 339.977 50.8943 341.666 53.3994 342.819C55.9044 343.971 58.5893 344.565 61.3007 344.565H162.995C165.707 344.565 168.392 343.971 170.897 342.819C173.402 341.666 175.678 339.977 177.595 337.847C179.512 335.717 181.033 333.188 182.071 330.406C183.109 327.623 183.643 324.64 183.643 321.628V30.9271C183.643 27.9151 183.109 24.9325 182.071 22.1497C181.033 19.3669 179.512 16.8384 177.595 14.7086C175.678 12.5787 173.402 10.8892 170.897 9.73655C168.392 8.58388 165.707 7.9906 162.995 7.99061Z" fill="white"/>
<path d="M223.711 352.605H0.58563C0.430311 352.605 0.281353 352.537 0.171527 352.415C0.0616997 352.293 0 352.127 0 351.955C0 351.782 0.0616997 351.617 0.171527 351.495C0.281353 351.373 0.430311 351.304 0.58563 351.304H223.711C223.866 351.304 224.015 351.373 224.125 351.495C224.234 351.617 224.296 351.782 224.296 351.955C224.296 352.127 224.234 352.293 224.125 352.415C224.015 352.537 223.866 352.605 223.711 352.605Z" fill="#CBCBCB"/>
<path d="M112.148 224.887C139.461 224.887 161.602 200.29 161.602 169.949C161.602 139.608 139.461 115.011 112.148 115.011C84.8353 115.011 62.6939 139.608 62.6939 169.949C62.6939 200.29 84.8353 224.887 112.148 224.887Z" fill="#6C63FF"/>
<path d="M107.247 190.906C106.135 190.908 105.052 190.508 104.162 189.767L104.107 189.721L92.4841 179.844C91.9458 179.386 91.4941 178.814 91.1547 178.162C90.8154 177.51 90.595 176.789 90.5061 176.042C90.4173 175.295 90.4618 174.536 90.6371 173.808C90.8123 173.08 91.1149 172.398 91.5276 171.8C91.9403 171.202 92.4549 170.7 93.0422 170.323C93.6294 169.946 94.2778 169.701 94.9502 169.603C95.6226 169.504 96.306 169.554 96.9612 169.748C97.6164 169.943 98.2307 170.279 98.769 170.738L106.297 177.15L124.086 151.369C124.499 150.772 125.013 150.27 125.6 149.893C126.187 149.516 126.835 149.271 127.507 149.173C128.18 149.074 128.863 149.124 129.518 149.318C130.173 149.513 130.787 149.849 131.325 150.307L131.326 150.308L131.216 150.479L131.329 150.308C132.415 151.235 133.125 152.602 133.304 154.11C133.483 155.618 133.116 157.143 132.284 158.351L111.36 188.662C110.876 189.36 110.254 189.925 109.541 190.313C108.829 190.701 108.045 190.902 107.252 190.899L107.247 190.906Z" fill="white"/>
</svg>
